<svg xmlns="http://www.w3.org/2000/svg" viewBox="0 0 726.19 975.27"><defs><style>.cls-1{fill:#1c0051;}.cls-2{fill:#fcd430;}</style></defs><g id="Layer_2" data-firstName="Layer 2"><g id="Layer_1-2" data-firstName="Layer 1"><path class="cls-1" d="M726.19,217.51V975.27H302.29v-53.2c194.72,0,352.57-157.85,352.57-352.57S497,216.93,302.29,216.93L449.05,121V63.15H407.72V0h206.6V63.15H579.43v58Z"/><path class="cls-2" d="M504.4,360.59c-115.4-115.4-302.48-115.4-417.86,0S-28.84,663,86.55,778.43s302.45,115.39,417.85,0S619.78,476,504.4,360.59ZM221.79,434h80.38V353.61h25.17V434h80.38v25.18H327.34v80.37H302.17V459.16H221.79ZM196.55,738.5C135.91,677.85,159,559.37,159,559.37L369.61,770S248.58,790.52,196.55,738.5Zm266-38.55V619.57H382.21V594.4h80.37V514h25.18V594.4h80.37l0,25.18H487.77V700Z"/></g></g></svg>