<svg xmlns="http://www.w3.org/2000/svg" viewBox="0 0 11.59 15.56"><defs><style>.cls-1{fill:#1c0051;}.cls-2{fill:#fcd430;}</style></defs><g id="Layer_2" data-firstName="Layer 2"><g id="Layer_1-2" data-firstName="Layer 1"><path class="cls-1" d="M11.59,3.47V15.56H4.82v-.85a5.63,5.63,0,1,0,0-11.25L7.16,1.93V1H6.51V0H9.8V1H9.25v.92Z"/><path class="cls-2" d="M8.05,5.75a4.72,4.72,0,1,0,0,6.67A4.72,4.72,0,0,0,8.05,5.75ZM3.54,6.92H4.82V5.64h.4V6.92H6.51v.41H5.22V8.61h-.4V7.33H3.54Zm-.4,4.86c-1-1-.6-2.85-.6-2.85L5.9,12.29S4,12.61,3.14,11.78Zm4.24-.61V9.89H6.1V9.48H7.38V8.2h.4V9.48H9.06v.41H7.78v1.28Z"/></g></g></svg>